<svg xmlns="http://www.w3.org/2000/svg" version="1.1" xmlns:xlink="http://www.w3.org/1999/xlink" xmlns:svgjs="http://svgjs.dev/svgjs" width="100%" height="100%" viewBox="0 0 1000 600"><rect width="1000" height="600" x="0" y="0" fill="#ffffff"/><g><circle r="166.66666666666666" cx="279.1314036051432" cy="301.35364674019786" fill="#69bce0" transform="matrix(1.1114593466648757,0,0,1.1114593466648757,0,-34.94232895280136)"/><path d="M150.93053231887845 376.3536506080814L132.97832757658804 376.3536506080814L132.97832757658804 226.35365416559964L150.93053231887845 226.35365416559964L150.93053231887845 290.381241533801L237.07780053025908 290.381241533801L237.07780053025908 226.35365416559964L255.0008620830328 226.35365416559964L255.0008620830328 376.3536506080814L237.07780053025908 376.3536506080814L237.07780053025908 304.6322612074698L150.93053231887845 304.6322612074698L150.93053231887845 376.3536506080814ZM302.037969962995 376.3536506080814L284.93091771668907 376.3536506080814L284.93091771668907 226.35365416559964L310.9557859551068 226.35365416559964L355.5157227261491 331.5897115104222L401.73682129964357 226.35365416559964L425.2845184291414 226.35365416559964L425.2845184291414 376.3536506080814L408.78947316268625 376.3536506080814L408.78947316268625 249.40591707331345L363.09295200049246 350.73678702289754L346.59790673403734 350.73678702289754L302.037969962995 248.70648052491254L302.037969962995 376.3536506080814Z " fill="#051320" transform="matrix(1.1114593466648757,0,0,1.1114593466648757,0,-34.94232895280136)"/><path d="M575.3704628562897 349.3347366086518L575.3704628562897 349.3347366086518Q567.3409282599575 349.3347366086518 559.7497877938849 347.5580867123369Q552.1817207030892 345.7583634407452 545.8134691266878 341.90510976951686Q539.4452175502865 338.0518560982885 535.107422998245 331.93741164993213Q530.7696284462036 325.79989382629896 529.1314188015496 317.0550845963856L529.1314188015496 317.0550845963856L541.1526473207709 311.8635751591019Q543.8291588528816 320.93141164289074 548.3976871576913 326.69975546209486Q552.9892888377777 332.468099281299 559.9574481713763 335.14461081340966Q566.9256075049749 337.82112234552034 576.7548653728986 337.82112234552034L576.7548653728986 337.82112234552034Q584.2998590884176 337.82112234552034 590.668110664819 335.6752984447764Q597.0363622412203 333.50640116875564 600.8896159124486 328.7302124864547Q604.742869583677 323.9309504288769 604.742869583677 315.9014158325447L604.742869583677 315.9014158325447Q604.742869583677 308.1256883642576 601.5356704201995 303.6956003111088Q598.328471256722 299.28858563323695 591.0603580445248 296.127533220313Q583.8153182076045 292.9664808073892 571.4018423086773 289.06708038560726L571.4018423086773 289.06708038560726Q561.1803370610476 285.74451434574564 552.943142087224 282.0758476767319Q544.7059471134007 278.4302543829948 539.9297584310996 272.4311768110226Q535.1304963735219 266.43209923905033 535.1304963735219 256.04908036448296L535.1304963735219 256.04908036448296Q535.1304963735219 245.98908874379097 540.4835194377432 239.4131767898983Q545.8365425019647 232.8372648360056 554.973599111584 229.6069922972513Q564.0875823459264 226.3536463832202 575.6242699843347 226.3536463832202L575.6242699843347 226.3536463832202Q585.2689408500439 226.3536463832202 592.6524209386251 228.38410340758003Q600.0359010272064 230.4145604319399 605.873464972241 234.86772186036544Q611.7110289172756 239.34395666406783 616.5795111006838 246.72743675264908L616.5795111006838 246.72743675264908L606.4502993541614 254.43394409510577Q601.4895236696459 245.82757511685324 594.1521903316183 241.76666106813354Q586.8148569935906 237.70574701941385 577.4932133817567 237.70574701941385L577.4932133817567 237.70574701941385Q569.4406054101478 237.70574701941385 563.2800142112378 239.50547029100554Q557.1194230123278 241.2821201873204 553.589196594975 245.08922710799513Q550.0589701776221 248.91940740394665 550.0589701776221 254.98770510174938L550.0589701776221 254.98770510174938Q550.0589701776221 260.8252690467839 552.5278213322414 264.40164221469047Q555.0197458621376 267.97801538259705 559.5652007916703 270.33149966083226Q564.0875823459264 272.6849839390676 570.2712469201133 274.53085396121287Q576.4318381190233 276.39979735863506 583.8153182076045 278.84557513797756L583.8153182076045 278.84557513797756Q595.2366389696286 282.5834619328218 603.2431001906839 286.9212564848633Q611.2264880364623 291.2590510369048 615.4027689615662 297.9503298671815Q619.57904988667 304.6416086974583 619.57904988667 315.4168749517316L619.57904988667 315.4168749517316Q619.57904988667 326.3767282082194 614.2721735730022 333.9217219237384Q608.9652972593344 341.4667156392573 599.0668192655801 345.38918943631614Q589.168341271826 349.3347366086518 575.3704628562897 349.3347366086518ZM648.6284293601818 376.3536590578038L634.8305509446457 376.3536590578038L634.8305509446457 264.33242208885997L646.8287060885901 264.33242208885997L648.0515949782614 277.29965899443084Q651.8587018989361 270.49301328777005 658.2038801000606 266.5013193648807Q664.5259849259083 262.5326988172683 673.2015740299913 262.5326988172683L673.2015740299913 262.5326988172683Q688.6838088407351 262.5326988172683 698.1438927042299 273.5617721995866Q707.6039765677247 284.5908455819049 707.6039765677247 305.93371771296006L707.6039765677247 305.93371771296006Q707.6039765677247 319.24705524768314 703.5892092695585 328.9609462392229Q699.5744419713925 338.69791060603933 691.8910080042126 343.9817135444303Q684.2306474123095 349.2424431075445 673.2015740299913 349.2424431075445L673.2015740299913 349.2424431075445Q664.5952050517387 349.2424431075445 658.526907353936 346.05831731934376Q652.4355362808566 342.85111815586635 648.6284293601818 337.2442879635999L648.6284293601818 337.2442879635999L648.6284293601818 376.3536590578038ZM672.4632260211332 339.43625861489755L672.4632260211332 339.43625861489755Q683.1000520237455 339.43625861489755 688.2915614610292 330.87603638719855Q693.4830708983129 322.31581415949967 693.4830708983129 305.4491768321469L693.4830708983129 305.4491768321469Q693.4830708983129 289.4593277653131 688.1761945846451 280.8760321623374Q682.8462448957006 272.26966318408483 672.3940058953027 272.26966318408483L672.3940058953027 272.26966318408483Q667.5255237118945 272.26966318408483 663.2338759104066 273.93094620401564Q658.919154733642 275.59222922394645 655.6888821948876 279.2839692682371Q652.4355362808566 282.97570931252767 650.5665928834344 289.06708038560726Q648.6976494860123 295.13537808340993 648.6284293601818 303.9955541897075L648.6284293601818 303.9955541897075Q648.6284293601818 316.63976384140284 650.8204000114794 324.4385646849668Q653.0123706627769 332.214292153254 658.2038801000606 335.8368120717142Q663.3953895373444 339.43625861489755 672.4632260211332 339.43625861489755ZM747.2671086685721 349.3347366086518L747.2671086685721 349.3347366086518Q740.4373895866344 349.3347366086518 734.8536327696448 347.05047245624695Q729.2468025773784 344.7892816791189 725.9242365375169 340.12845987320196Q722.6016704976553 335.4676380672851 722.6016704976553 328.2456716056416L722.6016704976553 328.2456716056416Q722.6016704976553 320.4468707620776 725.4858424072573 315.62453532922297Q728.3700143168594 310.8021998963683 733.8384042574648 308.0103214878735Q739.3067941980704 305.19536970410195 747.0133015405271 303.58023343472473Q754.7198088829837 301.96509716534763 764.2952596228625 300.4884011476314L764.2952596228625 300.4884011476314L773.4553896077587 299.12707200629916L773.4553896077587 294.97386445647226Q773.4553896077587 286.3905688534966 772.0479137158729 281.47593991953465Q770.6173644487103 276.56131098557273 766.9256244044196 274.4616338353825Q763.233884360129 272.3619566851921 756.2657250265304 272.3619566851921L756.2657250265304 272.3619566851921Q748.6284378099042 272.3619566851921 742.4447732357174 274.53085396121287Q736.2380352862538 276.7228246125104 730.4696914670496 280.9452522881678L730.4696914670496 280.9452522881678Q730.4696914670496 280.9452522881678 729.6159765818074 279.69929002321976Q728.7622616965652 278.4302543829948 727.7008864338318 276.8151181136177Q726.662584546375 275.1999818442406 725.8088696611328 273.97709295456923Q724.9551547758906 272.754204064898 724.9551547758906 272.754204064898L724.9551547758906 272.754204064898Q731.692580356721 267.7242082545521 739.1914273216863 265.1399902235486Q746.6902742866516 262.5326988172683 756.9117795342813 262.5326988172683L756.9117795342813 262.5326988172683Q771.6787397114438 262.5326988172683 779.454467179731 269.80081202946553Q787.2532680232949 277.0458518663859 787.2532680232949 292.45886655129925L787.2532680232949 292.45886655129925L787.2532680232949 347.3042795842919L775.416626506288 347.3042795842919L774.1937376166168 336.92126070972455Q769.8097963140217 343.012631782804 763.0031506073608 346.17368419572784Q756.1734315254232 349.3347366086518 747.2671086685721 349.3347366086518ZM749.4590793198696 339.59777224183523L749.4590793198696 339.59777224183523Q756.8425594084508 339.59777224183523 762.7031967287622 336.5059399547418Q768.5869074243504 333.43718104292526 773.4553896077587 327.59961709789064L773.4553896077587 327.59961709789064L773.4553896077587 307.87188123621263L762.9108571062536 309.6716045078043Q751.6510499711671 311.5405479052264 745.6750457744718 313.5479315543095Q739.722114953053 315.57838857866926 737.5762910523091 318.6702208657627Q735.4073937762885 321.76205315285614 735.4073937762885 326.79204896320215L735.4073937762885 326.79204896320215Q735.4073937762885 333.27566741598747 738.5915195644891 336.4367198289114Q741.7525719774129 339.59777224183523 749.4590793198696 339.59777224183523Z " fill="##051320" transform="matrix(1.1114593466648757,0,0,1.1114593466648757,0,-34.94232895280136)"/></g></svg>